<?xml version="1.0" standalone="no"?>
<!DOCTYPE svg PUBLIC "-//W3C//DTD SVG 20010904//EN"
 "http://www.w3.org/TR/2001/REC-SVG-20010904/DTD/svg10.dtd">
<svg version="1.0" xmlns="http://www.w3.org/2000/svg"
 width="36.000000pt" height="37.000000pt" viewBox="0 0 36.000000 37.000000"
 preserveAspectRatio="xMidYMid meet">

<g transform="translate(0.000000,37.000000) scale(0.100000,-0.100000)"
fill="#000000" stroke="none">
<path d="M147 283 c-4 -3 -7 -17 -7 -30 0 -13 -7 -26 -15 -29 -8 -4 -15 -12
-15 -20 0 -8 7 -14 15 -14 11 0 15 -12 15 -50 0 -43 3 -50 20 -50 17 0 20 7
20 50 0 38 4 50 15 50 8 0 15 7 15 15 0 8 -7 15 -15 15 -8 0 -15 9 -15 20 0
11 7 20 15 20 8 0 15 7 15 15 0 15 -50 22 -63 8z"/>
</g>
</svg>
