<?xml version="1.0" standalone="no"?>
<!DOCTYPE svg PUBLIC "-//W3C//DTD SVG 20010904//EN"
 "http://www.w3.org/TR/2001/REC-SVG-20010904/DTD/svg10.dtd">
<svg version="1.0" xmlns="http://www.w3.org/2000/svg"
 width="327.000000pt" height="51.000000pt" viewBox="0 0 327.000000 51.000000"
 preserveAspectRatio="xMidYMid meet">

<g transform="translate(0.000000,51.000000) scale(0.100000,-0.100000)"
fill="#000000" stroke="none">
<path d="M1922 430 c-49 -12 -105 -61 -121 -107 -13 -36 -12 -43 5 -79 59
-120 264 -131 299 -16 10 34 -14 27 -27 -8 -17 -50 -90 -76 -140 -49 -11 6
-26 26 -34 44 -28 67 -10 171 34 194 12 6 36 11 55 11 35 0 58 -19 94 -76 10
-16 12 -11 12 36 1 41 -2 51 -11 42 -7 -7 -17 -8 -27 -3 -26 14 -103 20 -139
11z"/>
<path d="M2523 431 c-47 -12 -103 -58 -120 -98 -38 -92 51 -185 177 -185 174
0 244 180 102 260 -45 25 -112 35 -159 23z m113 -32 c16 -17 19 -37 19 -111 0
-82 -2 -91 -24 -109 -27 -22 -78 -24 -103 -5 -51 38 -51 195 -1 234 27 20 87
15 109 -9z"/>
<path d="M100 420 c0 -5 11 -10 25 -10 l25 0 0 -125 0 -125 -25 0 c-14 0 -25
-4 -25 -10 0 -6 55 -10 145 -10 l145 0 0 56 c0 34 -4 53 -10 49 -6 -3 -10 -14
-10 -24 0 -28 -35 -53 -85 -58 l-45 -6 0 127 0 126 25 0 c14 0 25 5 25 10 0 6
-38 10 -95 10 -57 0 -95 -4 -95 -10z"/>
<path d="M534 300 c-51 -100 -72 -132 -90 -136 -43 -11 -25 -24 31 -24 30 0
55 5 55 10 0 6 -6 10 -14 10 -22 0 -28 17 -16 40 9 17 21 20 80 20 67 0 70 -1
85 -30 15 -30 15 -30 -10 -30 -14 0 -25 -4 -25 -10 0 -6 38 -10 95 -10 57 0
95 4 95 10 0 6 -9 10 -20 10 -14 0 -37 33 -92 135 -49 90 -79 135 -90 135 -12
0 -38 -40 -84 -130z m77 -10 l27 -50 -60 0 -59 0 28 50 c15 27 30 50 33 50 3
0 17 -23 31 -50z"/>
<path d="M1010 422 c0 -4 10 -12 23 -17 21 -10 22 -15 22 -125 0 -112 -1 -115
-22 -118 -47 -7 -21 -22 37 -22 33 0 60 4 60 10 0 6 -8 10 -18 10 -34 0 -42
21 -42 117 0 51 4 93 9 93 5 0 26 -19 46 -42 96 -108 177 -188 190 -188 12 0
15 25 17 133 3 128 4 132 26 135 46 7 20 22 -38 22 -33 0 -60 -4 -60 -10 0 -5
8 -10 18 -10 10 0 23 -5 30 -12 13 -13 17 -139 5 -137 -5 0 -42 38 -83 84
l-75 83 -72 1 c-40 1 -73 -2 -73 -7z"/>
<path d="M1499 302 c-41 -78 -74 -131 -88 -137 -35 -16 -24 -25 34 -25 30 0
55 5 55 10 0 6 -8 10 -18 10 -27 0 -32 9 -20 36 10 22 17 24 83 24 67 0 73 -2
83 -25 16 -34 15 -35 -8 -35 -11 0 -20 -4 -20 -10 0 -13 177 -13 185 0 3 6 -4
10 -17 10 -19 0 -35 22 -96 135 -50 91 -79 135 -90 135 -11 0 -39 -42 -83
-128z m76 -12 l25 -50 -55 0 c-30 0 -55 2 -55 5 0 12 45 95 52 95 4 0 19 -22
33 -50z"/>
<path d="M2160 420 c0 -5 11 -10 25 -10 l25 0 0 -125 0 -125 -25 0 c-14 0 -25
-4 -25 -10 0 -6 37 -10 90 -10 53 0 90 4 90 10 0 6 -11 10 -25 10 l-25 0 0
125 0 125 25 0 c14 0 25 5 25 10 0 6 -37 10 -90 10 -53 0 -90 -4 -90 -10z"/>
<path d="M2790 422 c0 -4 10 -12 23 -17 20 -9 22 -17 25 -105 3 -115 -2 -140
-28 -140 -11 0 -20 -4 -20 -10 0 -5 25 -10 55 -10 54 0 77 15 33 22 -22 3 -23
8 -26 106 -1 56 1 102 5 102 4 0 55 -52 112 -115 59 -65 113 -115 123 -115 16
0 18 13 20 133 3 128 4 132 26 135 46 7 20 22 -38 22 -58 0 -84 -15 -37 -22
20 -3 22 -9 25 -78 l3 -75 -81 88 -82 87 -69 0 c-38 0 -69 -3 -69 -8z"/>
</g>
</svg>
