<?xml version="1.0" standalone="no"?>
<!DOCTYPE svg PUBLIC "-//W3C//DTD SVG 20010904//EN"
 "http://www.w3.org/TR/2001/REC-SVG-20010904/DTD/svg10.dtd">
<svg version="1.0" xmlns="http://www.w3.org/2000/svg"
 width="37.000000pt" height="36.000000pt" viewBox="0 0 37.000000 36.000000"
 preserveAspectRatio="xMidYMid meet">

<g transform="translate(0.000000,36.000000) scale(0.100000,-0.100000)"
fill="#000000" stroke="none">
<path d="M90 251 c-5 -11 -10 -49 -10 -85 0 -87 10 -96 105 -96 95 0 105 9
105 96 0 99 -5 104 -105 104 -73 0 -86 -3 -95 -19z m168 -3 c16 -16 16 -140 0
-156 -16 -16 -130 -16 -146 0 -16 16 -16 140 0 156 16 16 130 16 146 0z"/>
<path d="M230 230 c0 -5 5 -10 10 -10 6 0 10 5 10 10 0 6 -4 10 -10 10 -5 0
-10 -4 -10 -10z"/>
<path d="M146 204 c-21 -21 -20 -47 2 -67 24 -22 55 -21 75 1 32 35 10 82 -38
82 -13 0 -31 -7 -39 -16z m62 -6 c30 -30 -4 -77 -41 -57 -29 17 -15 69 18 69
6 0 16 -5 23 -12z"/>
</g>
</svg>
